<svg width="874" height="564" viewBox="0 0 874 564" fill="none" xmlns="http://www.w3.org/2000/svg">
<g clip-path="url(#clip0_210_177)">
<g filter="url(#filter0_i_210_177)">
<rect x="0.00878906" y="53.1465" width="316.815" height="316.815" rx="158.408" fill="url(#paint0_linear_210_177)"/>
</g>
<g filter="url(#filter1_i_210_177)">
<path fill-rule="evenodd" clip-rule="evenodd" d="M395.436 0.791016C352.02 0.791016 316.824 35.9868 316.824 79.403C316.824 122.819 352.02 158.015 395.436 158.015C438.853 158.015 474.048 122.819 474.048 79.403C474.048 35.9868 438.853 0.791016 395.436 0.791016ZM395.436 15.6578C360.231 15.6578 331.691 44.1977 331.691 79.4034C331.691 114.609 360.231 143.149 395.436 143.149C430.642 143.149 459.182 114.609 459.182 79.4034C459.182 44.1977 430.642 15.6578 395.436 15.6578Z" fill="url(#paint1_linear_210_177)"/>
</g>
<g filter="url(#filter2_i_210_177)">
<path fill-rule="evenodd" clip-rule="evenodd" d="M767.572 271.135C751.044 271.135 737.645 284.534 737.645 301.063C737.645 317.591 751.044 330.99 767.572 330.99C784.101 330.99 797.5 317.591 797.5 301.063C797.5 284.534 784.101 271.135 767.572 271.135ZM767.572 276.794C754.169 276.794 743.304 287.66 743.304 301.063C743.304 314.466 754.169 325.331 767.572 325.331C780.975 325.331 791.841 314.466 791.841 301.063C791.841 287.66 780.975 276.794 767.572 276.794Z" fill="url(#paint2_linear_210_177)"/>
</g>
<g filter="url(#filter3_i_210_177)">
<path fill-rule="evenodd" clip-rule="evenodd" d="M133.622 419.201C93.8826 419.201 61.6672 451.416 61.6672 491.156C61.6672 530.896 93.8826 563.111 133.622 563.111C173.362 563.111 205.577 530.896 205.577 491.156C205.577 451.416 173.362 419.201 133.622 419.201ZM133.622 432.809C101.398 432.809 75.2746 458.932 75.2746 491.157C75.2746 523.381 101.398 549.504 133.622 549.504C165.847 549.504 191.97 523.381 191.97 491.157C191.97 458.932 165.847 432.809 133.622 432.809Z" fill="url(#paint3_linear_210_177)"/>
</g>
<g filter="url(#filter4_i_210_177)">
<rect x="797.5" y="183.109" width="50.0897" height="50.0897" rx="25.0449" fill="url(#paint4_linear_210_177)"/>
</g>
<g filter="url(#filter5_i_210_177)">
<rect x="588.053" y="434.34" width="50.0897" height="50.0897" rx="25.0449" fill="url(#paint5_linear_210_177)"/>
</g>
<g filter="url(#filter6_i_210_177)">
<rect x="449.003" y="354.061" width="72.2875" height="72.2875" rx="36.1437" fill="url(#paint6_linear_210_177)"/>
</g>
<g filter="url(#filter7_i_210_177)">
<rect x="298.294" y="330.992" width="50.0897" height="50.0897" rx="25.0449" fill="url(#paint7_linear_210_177)"/>
</g>
<g filter="url(#filter8_i_210_177)">
<rect x="618.394" y="280.604" width="50.3875" height="50.3875" rx="25.1938" fill="url(#paint8_linear_210_177)"/>
</g>
<g filter="url(#filter9_i_210_177)">
<path d="M748.015 169.149C748.629 161.395 751.981 154.026 756.951 148.043C776.776 124.18 773.502 88.7629 749.638 68.9378C725.775 49.1127 690.358 52.3866 670.533 76.2502C665.563 82.2328 658.932 86.8788 651.423 88.9039C636.659 92.8851 622.937 101.304 612.423 113.959C585.327 146.575 589.802 194.98 622.417 222.075C655.032 249.171 703.437 244.696 730.533 212.081C741.047 199.425 746.807 184.392 748.015 169.149Z" fill="url(#paint9_linear_210_177)"/>
</g>
<g filter="url(#filter10_i_210_177)">
<path d="M384.147 493.36C384.567 488.058 386.859 483.017 390.259 478.926C403.817 462.605 401.578 438.382 385.257 424.823C368.936 411.265 344.714 413.504 331.155 429.825C327.756 433.916 323.221 437.094 318.085 438.479C307.988 441.202 298.603 446.959 291.412 455.615C272.881 477.921 275.941 511.027 298.248 529.558C320.554 548.089 353.659 545.029 372.191 522.723C379.382 514.067 383.321 503.786 384.147 493.36Z" fill="url(#paint10_linear_210_177)"/>
</g>
<g filter="url(#filter11_i_210_177)">
<path d="M706.954 384.335C724.337 371.912 733.029 365.701 740.355 364.027C756.805 360.267 773.739 367.966 781.721 382.833C785.275 389.454 786.309 400.087 788.376 421.353V421.353C790.443 442.62 791.476 453.253 789.263 460.434C784.293 476.56 769.159 487.376 752.293 486.855C744.782 486.623 735.057 482.201 715.606 473.358V473.358C696.156 464.515 686.43 460.094 681.317 454.586C669.837 442.219 668.037 423.705 676.922 409.359C680.878 402.97 689.57 396.758 706.954 384.335V384.335Z" fill="url(#paint11_linear_210_177)"/>
</g>
<g filter="url(#filter12_i_210_177)">
<path d="M422.261 196.298C439.645 183.875 448.336 177.664 455.663 175.989C472.113 172.23 489.046 179.929 497.028 194.796C500.583 201.417 501.616 212.05 503.683 233.316V233.316C505.75 254.582 506.784 265.216 504.57 272.397C499.601 288.523 484.467 299.339 467.601 298.818C460.089 298.586 450.364 294.164 430.914 285.321V285.321C411.463 276.478 401.738 272.056 396.625 266.549C385.144 254.182 383.345 235.668 392.229 221.322C396.186 214.933 404.878 208.721 422.261 196.298V196.298Z" fill="url(#paint12_linear_210_177)"/>
</g>
</g>
<defs>
<filter id="filter0_i_210_177" x="0.00878906" y="53.1465" width="343.518" height="343.519" filterUnits="userSpaceOnUse" color-interpolation-filters="sRGB">
<feFlood flood-opacity="0" result="BackgroundImageFix"/>
<feBlend mode="normal" in="SourceGraphic" in2="BackgroundImageFix" result="shape"/>
<feColorMatrix in="SourceAlpha" type="matrix" values="0 0 0 0 0 0 0 0 0 0 0 0 0 0 0 0 0 0 127 0" result="hardAlpha"/>
<feOffset dx="29.6697" dy="29.6697"/>
<feGaussianBlur stdDeviation="13.3513"/>
<feComposite in2="hardAlpha" operator="arithmetic" k2="-1" k3="1"/>
<feColorMatrix type="matrix" values="0 0 0 0 0.301961 0 0 0 0 0.933333 0 0 0 0 0.670588 0 0 0 1 0"/>
<feBlend mode="normal" in2="shape" result="effect1_innerShadow_210_177"/>
</filter>
<filter id="filter1_i_210_177" x="316.824" y="0.791016" width="161.652" height="157.225" filterUnits="userSpaceOnUse" color-interpolation-filters="sRGB">
<feFlood flood-opacity="0" result="BackgroundImageFix"/>
<feBlend mode="normal" in="SourceGraphic" in2="BackgroundImageFix" result="shape"/>
<feColorMatrix in="SourceAlpha" type="matrix" values="0 0 0 0 0 0 0 0 0 0 0 0 0 0 0 0 0 0 127 0" result="hardAlpha"/>
<feOffset dx="4.42792"/>
<feGaussianBlur stdDeviation="2.21396"/>
<feComposite in2="hardAlpha" operator="arithmetic" k2="-1" k3="1"/>
<feColorMatrix type="matrix" values="0 0 0 0 0.301961 0 0 0 0 0.933333 0 0 0 0 0.670588 0 0 0 1 0"/>
<feBlend mode="normal" in2="shape" result="effect1_innerShadow_210_177"/>
</filter>
<filter id="filter2_i_210_177" x="737.645" y="271.135" width="61.5414" height="59.8555" filterUnits="userSpaceOnUse" color-interpolation-filters="sRGB">
<feFlood flood-opacity="0" result="BackgroundImageFix"/>
<feBlend mode="normal" in="SourceGraphic" in2="BackgroundImageFix" result="shape"/>
<feColorMatrix in="SourceAlpha" type="matrix" values="0 0 0 0 0 0 0 0 0 0 0 0 0 0 0 0 0 0 127 0" result="hardAlpha"/>
<feOffset dx="1.68572"/>
<feGaussianBlur stdDeviation="0.842862"/>
<feComposite in2="hardAlpha" operator="arithmetic" k2="-1" k3="1"/>
<feColorMatrix type="matrix" values="0 0 0 0 0.301961 0 0 0 0 0.933333 0 0 0 0 0.670588 0 0 0 1 0"/>
<feBlend mode="normal" in2="shape" result="effect1_innerShadow_210_177"/>
</filter>
<filter id="filter3_i_210_177" x="61.6672" y="419.201" width="147.963" height="143.91" filterUnits="userSpaceOnUse" color-interpolation-filters="sRGB">
<feFlood flood-opacity="0" result="BackgroundImageFix"/>
<feBlend mode="normal" in="SourceGraphic" in2="BackgroundImageFix" result="shape"/>
<feColorMatrix in="SourceAlpha" type="matrix" values="0 0 0 0 0 0 0 0 0 0 0 0 0 0 0 0 0 0 127 0" result="hardAlpha"/>
<feOffset dx="4.05295"/>
<feGaussianBlur stdDeviation="2.02648"/>
<feComposite in2="hardAlpha" operator="arithmetic" k2="-1" k3="1"/>
<feColorMatrix type="matrix" values="0 0 0 0 0.301961 0 0 0 0 0.933333 0 0 0 0 0.670588 0 0 0 1 0"/>
<feBlend mode="normal" in2="shape" result="effect1_innerShadow_210_177"/>
</filter>
<filter id="filter4_i_210_177" x="797.5" y="183.109" width="54.3116" height="54.3116" filterUnits="userSpaceOnUse" color-interpolation-filters="sRGB">
<feFlood flood-opacity="0" result="BackgroundImageFix"/>
<feBlend mode="normal" in="SourceGraphic" in2="BackgroundImageFix" result="shape"/>
<feColorMatrix in="SourceAlpha" type="matrix" values="0 0 0 0 0 0 0 0 0 0 0 0 0 0 0 0 0 0 127 0" result="hardAlpha"/>
<feOffset dx="4.69089" dy="4.69089"/>
<feGaussianBlur stdDeviation="2.1109"/>
<feComposite in2="hardAlpha" operator="arithmetic" k2="-1" k3="1"/>
<feColorMatrix type="matrix" values="0 0 0 0 0.301961 0 0 0 0 0.933333 0 0 0 0 0.670588 0 0 0 1 0"/>
<feBlend mode="normal" in2="shape" result="effect1_innerShadow_210_177"/>
</filter>
<filter id="filter5_i_210_177" x="588.053" y="434.34" width="54.3116" height="54.3116" filterUnits="userSpaceOnUse" color-interpolation-filters="sRGB">
<feFlood flood-opacity="0" result="BackgroundImageFix"/>
<feBlend mode="normal" in="SourceGraphic" in2="BackgroundImageFix" result="shape"/>
<feColorMatrix in="SourceAlpha" type="matrix" values="0 0 0 0 0 0 0 0 0 0 0 0 0 0 0 0 0 0 127 0" result="hardAlpha"/>
<feOffset dx="4.69089" dy="4.69089"/>
<feGaussianBlur stdDeviation="2.1109"/>
<feComposite in2="hardAlpha" operator="arithmetic" k2="-1" k3="1"/>
<feColorMatrix type="matrix" values="0 0 0 0 0.301961 0 0 0 0 0.933333 0 0 0 0 0.670588 0 0 0 1 0"/>
<feBlend mode="normal" in2="shape" result="effect1_innerShadow_210_177"/>
</filter>
<filter id="filter6_i_210_177" x="449.003" y="354.061" width="78.3802" height="78.3798" filterUnits="userSpaceOnUse" color-interpolation-filters="sRGB">
<feFlood flood-opacity="0" result="BackgroundImageFix"/>
<feBlend mode="normal" in="SourceGraphic" in2="BackgroundImageFix" result="shape"/>
<feColorMatrix in="SourceAlpha" type="matrix" values="0 0 0 0 0 0 0 0 0 0 0 0 0 0 0 0 0 0 127 0" result="hardAlpha"/>
<feOffset dx="6.7697" dy="6.7697"/>
<feGaussianBlur stdDeviation="3.04636"/>
<feComposite in2="hardAlpha" operator="arithmetic" k2="-1" k3="1"/>
<feColorMatrix type="matrix" values="0 0 0 0 0.301961 0 0 0 0 0.933333 0 0 0 0 0.670588 0 0 0 1 0"/>
<feBlend mode="normal" in2="shape" result="effect1_innerShadow_210_177"/>
</filter>
<filter id="filter7_i_210_177" x="298.294" y="330.992" width="54.3115" height="54.3116" filterUnits="userSpaceOnUse" color-interpolation-filters="sRGB">
<feFlood flood-opacity="0" result="BackgroundImageFix"/>
<feBlend mode="normal" in="SourceGraphic" in2="BackgroundImageFix" result="shape"/>
<feColorMatrix in="SourceAlpha" type="matrix" values="0 0 0 0 0 0 0 0 0 0 0 0 0 0 0 0 0 0 127 0" result="hardAlpha"/>
<feOffset dx="4.69089" dy="4.69089"/>
<feGaussianBlur stdDeviation="2.1109"/>
<feComposite in2="hardAlpha" operator="arithmetic" k2="-1" k3="1"/>
<feColorMatrix type="matrix" values="0 0 0 0 0.301961 0 0 0 0 0.933333 0 0 0 0 0.670588 0 0 0 1 0"/>
<feBlend mode="normal" in2="shape" result="effect1_innerShadow_210_177"/>
</filter>
<filter id="filter8_i_210_177" x="618.394" y="280.604" width="54.6343" height="54.6336" filterUnits="userSpaceOnUse" color-interpolation-filters="sRGB">
<feFlood flood-opacity="0" result="BackgroundImageFix"/>
<feBlend mode="normal" in="SourceGraphic" in2="BackgroundImageFix" result="shape"/>
<feColorMatrix in="SourceAlpha" type="matrix" values="0 0 0 0 0 0 0 0 0 0 0 0 0 0 0 0 0 0 127 0" result="hardAlpha"/>
<feOffset dx="4.71877" dy="4.71877"/>
<feGaussianBlur stdDeviation="2.12345"/>
<feComposite in2="hardAlpha" operator="arithmetic" k2="-1" k3="1"/>
<feColorMatrix type="matrix" values="0 0 0 0 0.301961 0 0 0 0 0.933333 0 0 0 0 0.670588 0 0 0 1 0"/>
<feBlend mode="normal" in2="shape" result="effect1_innerShadow_210_177"/>
</filter>
<filter id="filter9_i_210_177" x="594.7" y="55.9707" width="193.062" height="183.826" filterUnits="userSpaceOnUse" color-interpolation-filters="sRGB">
<feFlood flood-opacity="0" result="BackgroundImageFix"/>
<feBlend mode="normal" in="SourceGraphic" in2="BackgroundImageFix" result="shape"/>
<feColorMatrix in="SourceAlpha" type="matrix" values="0 0 0 0 0 0 0 0 0 0 0 0 0 0 0 0 0 0 127 0" result="hardAlpha"/>
<feOffset dx="17.845"/>
<feGaussianBlur stdDeviation="8.92251"/>
<feComposite in2="hardAlpha" operator="arithmetic" k2="-1" k3="1"/>
<feColorMatrix type="matrix" values="0 0 0 0 0.303333 0 0 0 0 0.933333 0 0 0 0 0.669971 0 0 0 1 0"/>
<feBlend mode="normal" in2="shape" result="effect1_innerShadow_210_177"/>
</filter>
<filter id="filter10_i_210_177" x="279.292" y="415.955" width="132.04" height="125.725" filterUnits="userSpaceOnUse" color-interpolation-filters="sRGB">
<feFlood flood-opacity="0" result="BackgroundImageFix"/>
<feBlend mode="normal" in="SourceGraphic" in2="BackgroundImageFix" result="shape"/>
<feColorMatrix in="SourceAlpha" type="matrix" values="0 0 0 0 0 0 0 0 0 0 0 0 0 0 0 0 0 0 127 0" result="hardAlpha"/>
<feOffset dx="12.2047"/>
<feGaussianBlur stdDeviation="6.10233"/>
<feComposite in2="hardAlpha" operator="arithmetic" k2="-1" k3="1"/>
<feColorMatrix type="matrix" values="0 0 0 0 0.303333 0 0 0 0 0.933333 0 0 0 0 0.669971 0 0 0 1 0"/>
<feBlend mode="normal" in2="shape" result="effect1_innerShadow_210_177"/>
</filter>
<filter id="filter11_i_210_177" x="671.306" y="363.082" width="137.041" height="123.791" filterUnits="userSpaceOnUse" color-interpolation-filters="sRGB">
<feFlood flood-opacity="0" result="BackgroundImageFix"/>
<feBlend mode="normal" in="SourceGraphic" in2="BackgroundImageFix" result="shape"/>
<feColorMatrix in="SourceAlpha" type="matrix" values="0 0 0 0 0 0 0 0 0 0 0 0 0 0 0 0 0 0 127 0" result="hardAlpha"/>
<feOffset dx="17.845"/>
<feGaussianBlur stdDeviation="8.92251"/>
<feComposite in2="hardAlpha" operator="arithmetic" k2="-1" k3="1"/>
<feColorMatrix type="matrix" values="0 0 0 0 0.290196 0 0 0 0 0.917647 0 0 0 0 0.658824 0 0 0 1 0"/>
<feBlend mode="normal" in2="shape" result="effect1_innerShadow_210_177"/>
</filter>
<filter id="filter12_i_210_177" x="386.614" y="175.045" width="137.041" height="123.791" filterUnits="userSpaceOnUse" color-interpolation-filters="sRGB">
<feFlood flood-opacity="0" result="BackgroundImageFix"/>
<feBlend mode="normal" in="SourceGraphic" in2="BackgroundImageFix" result="shape"/>
<feColorMatrix in="SourceAlpha" type="matrix" values="0 0 0 0 0 0 0 0 0 0 0 0 0 0 0 0 0 0 127 0" result="hardAlpha"/>
<feOffset dx="17.845"/>
<feGaussianBlur stdDeviation="8.92251"/>
<feComposite in2="hardAlpha" operator="arithmetic" k2="-1" k3="1"/>
<feColorMatrix type="matrix" values="0 0 0 0 0.290196 0 0 0 0 0.917647 0 0 0 0 0.658824 0 0 0 1 0"/>
<feBlend mode="normal" in2="shape" result="effect1_innerShadow_210_177"/>
</filter>
<linearGradient id="paint0_linear_210_177" x1="61.6111" y1="90.1053" x2="243.791" y2="369.962" gradientUnits="userSpaceOnUse">
<stop stop-color="#11936A"/>
<stop offset="1" stop-color="#1D315F"/>
</linearGradient>
<linearGradient id="paint1_linear_210_177" x1="335.038" y1="34.0397" x2="479.766" y2="158.015" gradientUnits="userSpaceOnUse">
<stop stop-color="#147767"/>
<stop offset="1" stop-color="#1B3F60"/>
</linearGradient>
<linearGradient id="paint2_linear_210_177" x1="744.579" y1="283.793" x2="799.677" y2="330.99" gradientUnits="userSpaceOnUse">
<stop stop-color="#21AA94"/>
<stop offset="1" stop-color="#155B9C"/>
</linearGradient>
<linearGradient id="paint3_linear_210_177" x1="78.3388" y1="449.634" x2="210.811" y2="563.111" gradientUnits="userSpaceOnUse">
<stop stop-color="#21AA94"/>
<stop offset="1" stop-color="#155B9C"/>
</linearGradient>
<linearGradient id="paint4_linear_210_177" x1="807.24" y1="188.953" x2="836.043" y2="233.199" gradientUnits="userSpaceOnUse">
<stop stop-color="#11936A"/>
<stop offset="1" stop-color="#1D315F"/>
</linearGradient>
<linearGradient id="paint5_linear_210_177" x1="597.793" y1="440.183" x2="626.596" y2="484.43" gradientUnits="userSpaceOnUse">
<stop stop-color="#11936A"/>
<stop offset="1" stop-color="#1D315F"/>
</linearGradient>
<linearGradient id="paint6_linear_210_177" x1="463.059" y1="362.493" x2="504.627" y2="426.348" gradientUnits="userSpaceOnUse">
<stop stop-color="#11936A"/>
<stop offset="1" stop-color="#1D315F"/>
</linearGradient>
<linearGradient id="paint7_linear_210_177" x1="308.034" y1="336.836" x2="336.837" y2="381.082" gradientUnits="userSpaceOnUse">
<stop stop-color="#11936A"/>
<stop offset="1" stop-color="#1D315F"/>
</linearGradient>
<linearGradient id="paint8_linear_210_177" x1="628.192" y1="286.482" x2="657.166" y2="330.991" gradientUnits="userSpaceOnUse">
<stop stop-color="#11936A"/>
<stop offset="1" stop-color="#1D315F"/>
</linearGradient>
<linearGradient id="paint9_linear_210_177" x1="654.293" y1="91.744" x2="736.167" y2="213.314" gradientUnits="userSpaceOnUse">
<stop stop-color="#0DB36D"/>
<stop offset="1" stop-color="#1E285F"/>
</linearGradient>
<linearGradient id="paint10_linear_210_177" x1="320.049" y1="440.421" x2="376.044" y2="523.566" gradientUnits="userSpaceOnUse">
<stop stop-color="#0DB36D"/>
<stop offset="1" stop-color="#1E285F"/>
</linearGradient>
<linearGradient id="paint11_linear_210_177" x1="718.844" y1="324.142" x2="763.174" y2="492.06" gradientUnits="userSpaceOnUse">
<stop stop-color="#24E2BC"/>
<stop offset="1" stop-color="#1C3460"/>
</linearGradient>
<linearGradient id="paint12_linear_210_177" x1="434.151" y1="136.105" x2="478.482" y2="304.023" gradientUnits="userSpaceOnUse">
<stop stop-color="#24E2BC"/>
<stop offset="1" stop-color="#1C3460"/>
</linearGradient>
<clipPath id="clip0_210_177">
<rect width="873.742" height="564" fill="white"/>
</clipPath>
</defs>
</svg>
